<?xml version="1.0" standalone="no"?>
<!DOCTYPE svg PUBLIC "-//W3C//DTD SVG 20010904//EN"
 "http://www.w3.org/TR/2001/REC-SVG-20010904/DTD/svg10.dtd">
<svg version="1.0" xmlns="http://www.w3.org/2000/svg"
 width="4267.000000pt" height="2831.000000pt" viewBox="0 0 4267.000000 2831.000000"
 preserveAspectRatio="xMidYMid meet">
<metadata>
Created by potrace 1.16, written by Peter Selinger 2001-2019
</metadata>
<g transform="translate(0.000000,2831.000000) scale(0.100000,-0.100000)"
fill="#fff" stroke="none">
<path d="M13246 22749 c-108 -11 -254 -59 -356 -116 -63 -35 -111 -74 -185
-148 -135 -135 -197 -243 -257 -450 -20 -71 -23 -101 -22 -255 0 -162 2 -182
28 -265 96 -317 349 -530 716 -605 140 -29 363 -24 484 9 298 83 516 316 602
646 54 206 46 433 -22 614 -55 146 -177 303 -309 396 -188 133 -442 198 -679
174z"/>
<path d="M16272 22693 c-564 -355 -1199 -963 -1848 -1768 -327 -407 -509 -679
-683 -1025 -381 -756 -480 -1476 -300 -2180 111 -433 394 -1042 720 -1552 620
-970 1524 -1860 2812 -2767 325 -229 1286 -862 1517 -999 162 -96 480 -260
480 -247 0 12 -456 407 -1075 930 -832 703 -1197 1032 -1570 1416 -554 571
-1028 1229 -1431 1989 -246 464 -365 833 -424 1320 -18 144 -24 551 -11 720
71 928 420 1926 1038 2962 218 368 380 600 846 1220 16 21 27 38 24 38 -2 0
-45 -26 -95 -57z"/>
<path d="M16900 18810 l0 -1790 190 0 190 0 2 1427 3 1426 1115 -1426 1115
-1427 153 0 152 0 0 1790 0 1790 -190 0 -190 0 -2 -1428 -3 -1428 -1115 1428
-1115 1427 -152 1 -153 0 0 -1790z"/>
<path d="M24167 20594 c-4 -4 -7 -810 -7 -1791 l0 -1783 190 0 190 0 2 755 3
756 848 -756 847 -755 278 2 277 3 -896 795 -897 795 371 6 c345 5 378 7 452
28 340 95 603 352 699 682 83 287 36 583 -132 838 -54 82 -186 211 -274 269
-87 56 -193 103 -306 135 -75 21 -93 21 -857 25 -430 1 -784 0 -788 -4z m1596
-401 c105 -40 181 -87 247 -153 332 -331 177 -904 -275 -1020 -74 -19 -111
-20 -637 -20 l-558 0 0 610 0 611 583 -3 c570 -3 583 -4 640 -25z"/>
<path d="M27200 18810 l0 -1790 190 0 190 0 2 1274 3 1275 594 -1275 594
-1274 141 0 141 1 600 1276 600 1276 3 -1277 2 -1276 190 0 190 0 0 1790 0
1790 -162 0 -163 0 -664 -1418 c-366 -779 -681 -1450 -701 -1490 l-36 -74
-696 1489 -696 1488 -161 3 -161 2 0 -1790z"/>
<path d="M32601 20573 c-14 -30 -1524 -3465 -1547 -3521 l-14 -32 205 2 206 3
185 420 c101 231 209 477 240 548 l57 127 824 -2 824 -3 239 -545 239 -545
205 -3 c184 -2 205 -1 199 13 -3 9 -356 813 -784 1788 l-778 1772 -144 3 -144
3 -12 -28z m488 -1343 l318 -725 -323 -3 c-177 -1 -471 -1 -651 0 l-329 3 325
738 c214 483 329 734 334 725 5 -7 152 -339 326 -738z"/>
<path d="M34870 18810 l0 -1790 190 0 190 0 2 1425 3 1425 1114 -1425 1114
-1425 154 0 153 0 0 1790 0 1790 -190 0 -190 0 -2 -1429 -3 -1430 -1116 1427
-1115 1427 -152 3 -152 3 0 -1791z"/>
<path d="M21785 20584 c-456 -68 -837 -270 -1123 -594 -209 -237 -347 -518
-413 -840 -21 -102 -24 -141 -24 -340 1 -195 4 -239 24 -330 104 -482 365
-876 755 -1139 643 -435 1505 -395 2108 96 99 81 254 246 331 353 217 305 342
727 324 1095 -42 825 -604 1491 -1412 1672 -94 21 -140 25 -325 28 -118 2
-228 1 -245 -1z m372 -375 c467 -52 878 -342 1093 -770 105 -211 144 -379 144
-624 0 -245 -39 -413 -145 -625 -195 -391 -546 -662 -980 -756 -120 -27 -428
-27 -548 0 -432 94 -784 365 -979 752 -53 105 -97 233 -124 357 -31 146 -31
399 1 546 92 431 355 778 738 974 255 130 515 178 800 146z"/>
<path d="M12010 20223 c0 -5 30 -110 66 -234 163 -555 241 -936 288 -1404 53
-524 46 -1138 -19 -1650 -146 -1145 -565 -2164 -1179 -2869 -263 -303 -495
-498 -949 -799 -717 -476 -1442 -850 -2227 -1147 -555 -211 -997 -354 -2245
-729 -773 -232 -958 -290 -934 -290 24 -1 948 145 1199 189 2281 403 3868 920
5190 1690 520 303 904 638 1233 1076 443 590 711 1315 799 2164 20 195 17 804
-5 1010 -94 868 -355 1672 -770 2370 -119 201 -447 658 -447 623z"/>
<path d="M16860 16550 l0 -40 320 0 320 0 0 -890 0 -890 40 0 40 0 0 890 0
890 320 0 320 0 0 40 0 40 -680 0 -680 0 0 -40z"/>
<path d="M18440 15660 l0 -930 40 0 40 0 2 443 c3 405 4 442 20 442 9 0 240
-199 514 -442 l497 -443 60 0 c33 0 58 2 56 4 -2 2 -222 198 -489 435 -267
238 -486 436 -488 442 -2 5 102 9 270 9 199 0 287 4 324 14 187 50 330 211
357 402 35 240 -119 475 -352 536 -57 14 -121 17 -458 17 l-393 1 0 -930z
m882 813 c129 -61 214 -170 239 -306 32 -172 -60 -346 -228 -429 l-68 -33
-372 -3 -373 -3 0 406 0 406 368 -3 367 -3 67 -32z"/>
<path d="M20677 16578 c-3 -7 -185 -424 -406 -925 -221 -502 -401 -915 -401
-918 0 -3 19 -5 43 -5 l43 0 134 305 135 305 496 0 496 0 134 -302 135 -303
46 -3 47 -3 -21 48 c-12 26 -196 444 -409 928 l-388 880 -39 3 c-25 2 -41 -2
-45 -10z m271 -621 c121 -276 224 -510 228 -520 6 -16 -23 -17 -451 -17 l-457
0 5 22 c10 35 441 1017 448 1018 3 0 105 -226 227 -503z"/>
<path d="M21790 16550 l0 -40 170 0 170 0 0 -850 0 -850 -170 0 -170 0 0 -40
0 -40 385 0 385 0 0 40 0 40 -170 0 -170 0 0 850 0 850 170 0 170 0 0 40 0 40
-385 0 -385 0 0 -40z"/>
<path d="M22780 15661 l0 -931 40 0 40 0 2 852 3 851 665 -851 665 -851 43 -1
42 0 0 930 0 930 -45 0 -45 0 -2 -852 -3 -852 -664 850 c-662 848 -663 849
-702 852 l-39 3 0 -930z"/>
<path d="M24500 15660 l0 -930 595 0 595 0 0 40 0 40 -555 0 -555 0 0 405 0
405 405 0 405 0 0 40 0 40 -405 0 -405 0 0 405 0 405 555 0 555 0 0 40 0 40
-595 0 -595 0 0 -930z"/>
<path d="M25910 15660 l0 -930 40 0 40 0 0 445 c0 393 2 445 15 445 9 0 240
-200 515 -445 l499 -445 61 0 61 0 -497 443 -498 442 300 5 c280 5 302 7 355
28 167 67 270 191 306 368 13 66 14 91 4 154 -30 202 -184 369 -379 409 -33 7
-196 11 -437 11 l-385 0 0 -930z m802 839 c162 -34 291 -171 316 -334 31 -199
-92 -391 -287 -449 -46 -13 -112 -16 -403 -16 l-348 0 0 405 0 405 335 0 c206
0 354 -4 387 -11z"/>
<path d="M14785 9196 c-343 -58 -618 -199 -866 -446 -137 -136 -217 -246 -300
-413 -216 -429 -219 -944 -9 -1383 154 -322 421 -587 743 -739 714 -338 1559
-102 1994 557 351 532 347 1209 -11 1748 -93 141 -283 332 -421 423 -173 114
-362 195 -558 238 -119 27 -450 35 -572 15z m-547 -588 c8 -8 12 -46 12 -104
l0 -93 780 0 780 0 0 94 c0 113 2 115 115 115 123 0 115 18 115 -258 0 -172
-3 -241 -12 -250 -8 -8 -46 -12 -103 -12 -57 0 -95 4 -103 12 -8 8 -12 46 -12
105 l0 93 -100 0 c-72 0 -102 -4 -105 -12 -2 -7 -11 -96 -20 -197 -11 -135
-20 -192 -32 -210 -9 -14 -72 -95 -140 -179 l-123 -152 0 -159 c0 -157 0 -158
28 -197 118 -163 202 -297 202 -323 0 -15 -32 -120 -70 -232 -77 -222 -93
-249 -154 -249 -41 0 -82 31 -89 65 -2 15 10 104 28 198 18 95 30 177 26 184
-18 33 -184 213 -196 213 -9 0 -70 -113 -165 -307 -83 -169 -163 -320 -177
-335 -44 -46 -118 -29 -143 33 -13 30 -8 49 86 328 l99 296 3 241 4 242 -128
158 c-69 87 -133 168 -140 180 -9 13 -20 90 -29 210 -9 104 -19 192 -24 197
-4 4 -50 6 -102 5 l-94 -3 -3 -89 c-2 -50 -8 -96 -14 -103 -14 -17 -189 -18
-206 -1 -9 9 -12 77 -12 244 0 198 2 235 16 248 19 20 183 23 202 4z"/>
<path d="M14624 8288 c3 -13 15 -72 26 -133 25 -133 35 -158 94 -224 25 -28
52 -64 60 -80 19 -37 80 -90 125 -109 48 -20 156 -19 206 2 47 20 88 57 121
109 14 20 47 62 74 92 28 30 50 57 50 59 0 1 14 70 30 151 17 81 30 150 30
152 0 1 -185 3 -411 3 l-411 0 6 -22z m525 -111 c84 -56 123 -166 91 -262 -60
-182 -330 -196 -411 -20 -26 56 -25 137 3 191 25 51 48 74 103 104 58 31 156
25 214 -13z"/>
<path d="M18940 9195 c-233 -39 -436 -120 -641 -256 -133 -88 -324 -281 -417
-422 -356 -535 -359 -1214 -9 -1745 156 -236 352 -411 607 -541 430 -220 945
-226 1387 -16 657 310 1018 1046 864 1754 -140 638 -659 1128 -1301 1226 -116
18 -385 18 -490 0z m-55 -730 c90 -23 192 -77 271 -143 l70 -59 64 58 c124
113 268 165 435 156 282 -14 497 -177 580 -440 47 -149 42 -260 -19 -437 -80
-228 -359 -528 -791 -850 -109 -82 -259 -180 -273 -180 -28 0 -346 230 -526
381 -155 130 -406 390 -406 421 0 4 86 8 191 8 l191 0 26 28 c15 15 36 45 48
67 l21 39 89 -137 c85 -130 111 -157 154 -157 43 0 67 43 146 258 42 117 80
215 84 217 4 2 31 -61 60 -141 34 -93 60 -150 74 -159 16 -12 62 -15 222 -15
l203 0 20 26 c27 34 27 74 1 102 -27 29 -43 32 -204 35 l-139 2 -78 210 c-91
244 -93 249 -126 264 -71 32 -92 2 -198 -286 -49 -134 -92 -243 -95 -243 -3 1
-41 56 -85 123 -117 178 -146 181 -245 22 l-56 -90 -202 -3 -201 -2 -16 23
c-26 40 -65 216 -65 293 0 267 184 515 445 597 68 21 87 24 185 26 49 0 112
-6 145 -14z"/>
<path d="M23205 9204 c-698 -101 -1236 -614 -1356 -1293 -26 -147 -29 -383 -6
-521 74 -441 319 -820 687 -1066 526 -350 1219 -349 1745 2 552 369 817 1050
655 1689 -76 301 -217 544 -442 761 -210 202 -470 340 -761 405 -72 17 -135
22 -292 24 -110 2 -213 1 -230 -1z m982 -497 c27 -30 33 -45 33 -81 0 -60 -36
-91 -117 -100 -239 -29 -434 -134 -552 -296 l-31 -43 60 -63 c33 -34 60 -67
60 -73 0 -5 32 -44 71 -86 90 -98 140 -176 169 -264 27 -86 23 -142 -14 -179
-21 -22 -53 -31 -228 -64 -112 -21 -228 -42 -260 -46 l-56 -7 59 -130 c33 -71
103 -222 156 -334 105 -224 116 -266 76 -319 -49 -66 -122 -89 -185 -56 -25
13 -46 48 -127 217 -54 111 -122 257 -152 324 -30 67 -57 123 -60 123 -4 0
-62 -145 -130 -321 -82 -214 -132 -331 -150 -350 -40 -43 -72 -46 -135 -15
-60 29 -94 73 -94 122 0 130 436 1134 635 1465 184 304 346 461 560 544 117
46 254 76 324 71 48 -3 58 -7 88 -39z m-252 -346 c144 -65 152 -263 14 -340
-58 -33 -151 -27 -203 12 -90 69 -103 201 -28 281 58 62 144 81 217 47z"/>
<path d="M23495 7734 c-31 -42 -55 -77 -53 -79 3 -3 123 17 176 30 22 6 22 7
-19 65 -23 33 -43 60 -44 60 -2 0 -28 -34 -60 -76z"/>
<path d="M27435 9179 c-481 -66 -904 -344 -1155 -760 -152 -253 -230 -563
-217 -869 29 -726 538 -1325 1261 -1482 86 -19 132 -22 311 -22 180 0 225 3
312 22 492 107 883 407 1101 847 63 127 93 211 128 360 26 112 28 135 29 335
0 232 -12 317 -71 498 -39 117 -145 326 -221 431 -226 315 -583 543 -971 622
-113 23 -398 33 -507 18z m305 -460 c64 -29 117 -84 140 -146 39 -104 17 -200
-63 -278 -74 -71 -168 -94 -269 -63 -50 15 -122 78 -151 132 -30 58 -31 174 0
231 66 124 220 180 343 124z m138 -575 c12 -8 58 -87 103 -175 88 -174 72
-156 248 -286 35 -27 69 -56 75 -65 15 -25 -4 -69 -41 -93 l-32 -20 -1 -127
c0 -69 -7 -162 -15 -205 -27 -144 -120 -288 -234 -365 -66 -44 -71 -53 -71
-132 -1 -39 -6 -81 -14 -94 -29 -53 -111 -78 -168 -51 -37 16 -68 70 -68 116
l0 40 -66 7 c-247 25 -440 177 -526 413 -17 48 -22 88 -26 231 l-4 172 -30 21
c-37 27 -51 61 -37 92 6 12 61 58 122 102 l112 80 82 160 c44 87 91 167 103
177 20 16 46 18 244 18 184 0 225 -3 244 -16z"/>
<path d="M27238 7610 l-117 -75 -1 -155 c0 -170 11 -234 57 -330 35 -72 151
-188 223 -223 70 -34 170 -59 218 -55 l37 3 3 248 2 247 -25 0 -25 0 0 -155
c0 -173 -8 -203 -60 -230 -58 -30 -144 -11 -172 38 -10 16 -14 118 -18 392
l-5 371 -117 -76z"/>
<path d="M27910 7269 l0 -421 40 32 c55 44 111 109 143 169 41 75 57 165 57
334 l0 148 -61 37 c-34 20 -88 56 -120 79 l-59 43 0 -421z"/>
</g>
</svg>
