<?xml version="1.0" encoding="UTF-8" standalone="no"?>
<!DOCTYPE svg PUBLIC "-//W3C//DTD SVG 1.1//EN" "http://www.w3.org/Graphics/SVG/1.1/DTD/svg11.dtd">
<svg xmlns="http://www.w3.org/2000/svg" xmlns:xlink="http://www.w3.org/1999/xlink" version="1.1" width="1024pt" height="679.466pt" viewBox="0 0 1024 679.466">
<g enable-background="new">
<g id="Layer-1" data-name="Livello 1">
<clipPath id="cp0">
<path transform="matrix(1,0,0,-1,0,679.466)" d="M 0 679.466 L 1024 679.466 L 1024 0 L 0 0 Z "/>
</clipPath>
<g clip-path="url(#cp0)">
<path transform="matrix(1,0,0,-1,114.6338,413.19743)" d="M 0 0 C 28.138 8.895 55.903 16.011 82.261 26.542 C 101.957 34.415 121.104 44.991 138.285 57.357 C 180.532 87.783 190.967 154.999 177.623 205.061 C 176.536 209.157 175.277 213.211 173.514 219.32 C 211.808 173.945 220.312 84.949 156.603 46.743 C 118.068 23.631 75.235 12.995 31.509 5.068 C 21.447 3.245 11.317 1.809 0 0 " fill="#030404" fill-rule="evenodd"/>
<path transform="matrix(1,0,0,-1,391.4268,331.1418)" d="M 0 0 C -14.629 15.04 -27.11 33.227 -36.389 52.015 C -55.596 90.906 -38.502 137.036 -17.287 171.283 C -11.572 180.502 -5.073 189.181 1.555 197.766 C -17.484 186.532 -35.375 166.542 -48.753 149.384 C -66.543 126.561 -77.114 99.089 -66.921 70.789 C -49.976 23.735 -11.251 -9.273 29.812 -36.039 C 40.681 -43.123 52.264 -51.521 63.967 -56.696 C 42.834 -37.526 19.937 -20.496 0 0 " fill="#030404" fill-rule="evenodd"/>
<path transform="matrix(1,0,0,-1,342.5137,160.2248)" d="M 0 0 C -2.656 -13.269 -13.182 -20.118 -26.663 -17.346 C -39.377 -14.734 -46.336 -4.598 -44.072 8.01 C -41.78 20.78 -30.388 28.772 -17.788 26.448 C -4.844 24.06 2.598 12.992 0 0 " fill="#030404" fill-rule="evenodd"/>
<path transform="matrix(1,0,0,-1,466.6455,185.13492)" d="M 0 0 L 9.007 0 L 9.007 -85.86 L 1.801 -85.86 L -51.996 -17.053 L -51.996 -85.86 L -61.001 -85.86 L -61.001 0 L -53.797 0 L 0 -68.809 Z " fill="#030404"/>
<path transform="matrix(1,0,0,-1,561.6328,227.8854)" d="M 0 0 C 0 18.613 -15.131 33.744 -33.743 33.744 C -52.356 33.744 -67.487 18.613 -67.487 0 C -67.487 -18.613 -52.356 -33.862 -33.743 -33.862 C -15.131 -33.862 0 -18.613 0 0 M 8.766 0 C 8.766 -23.536 -10.327 -42.629 -33.743 -42.629 C -57.28 -42.629 -76.373 -23.536 -76.373 0 C -76.373 23.537 -57.28 42.63 -33.743 42.63 C -10.327 42.63 8.766 23.537 8.766 0 " fill="#030404"/>
<path transform="matrix(1,0,0,-1,589.0127,223.56122)" d="M 0 0 L 24.977 0 C 33.022 0 39.626 6.604 39.626 14.77 C 39.626 22.814 33.022 29.419 24.977 29.419 L 0 29.419 Z M 10.807 -9.007 L 54.155 -47.434 L 40.826 -47.434 L 0 -11.048 L 0 -47.434 L -9.007 -47.434 L -9.007 38.426 L 24.977 38.426 C 37.945 38.426 48.512 27.739 48.512 14.77 C 48.512 1.681 37.945 -9.007 24.977 -9.007 Z " fill="#030404"/>
<path transform="matrix(1,0,0,-1,735.3916,185.13492)" d="M 0 0 L 0 -85.86 L -9.005 -85.86 L -9.005 -23.898 L -38.185 -85.86 L -44.79 -85.86 L -73.608 -24.017 L -73.608 -85.86 L -82.616 -85.86 L -82.616 0 L -74.931 0 L -41.427 -71.69 L -7.805 0 Z " fill="#030404"/>
<path transform="matrix(1,0,0,-1,801.918,235.5705)" d="M 0 0 L -15.73 35.905 L -31.582 0 Z M -12.369 50.436 L 25.338 -35.424 L 15.611 -35.424 L 3.963 -8.886 L -35.544 -8.886 L -47.192 -35.424 L -56.919 -35.424 L -19.214 50.436 Z " fill="#030404"/>
<path transform="matrix(1,0,0,-1,897.8662,185.13492)" d="M 0 0 L 9.005 0 L 9.005 -85.86 L 1.801 -85.86 L -51.996 -17.053 L -51.996 -85.86 L -61.003 -85.86 L -61.003 0 L -53.798 0 L 0 -68.809 Z " fill="#030404"/>
<path transform="matrix(1,0,0,-1,436.8521,282.8635)" d="M 0 0 L -15.365 0 L -15.365 -42.777 L -16.533 -42.777 L -16.533 0 L -31.837 0 L -31.837 1.168 L 0 1.168 Z " fill="#1389b9"/>
<path transform="matrix(1,0,0,-1,420.5479,325.41133)" d="M 0 0 L .71 0 L .71 42.777 L 16.076 42.777 L 16.076 43.486 L -15.304 43.486 L -15.304 42.777 L 0 42.777 Z M 1.167 -.459 L -.457 -.459 L -.457 42.318 L -15.761 42.318 L -15.761 43.945 L 16.533 43.945 L 16.533 42.318 L 1.167 42.318 Z " fill="#1389b9"/>
<path transform="matrix(1,0,0,-1,420.5479,325.41133)" d="M 0 0 L .71 0 L .71 42.777 L 16.075 42.777 L 16.075 43.486 L -15.304 43.486 L -15.304 42.777 L 0 42.777 Z M 1.167 -.459 L -.457 -.459 L -.457 42.318 L -15.761 42.318 L -15.761 43.945 L 16.534 43.945 L 16.534 42.318 L 1.167 42.318 Z " fill="#1389b9"/>
<path transform="matrix(1,0,0,-1,405.0151,282.8635)" d="M 0 0 L 15.304 0 Z M 16.472 0 L 31.838 0 L 31.838 1.168 L 0 1.168 L 31.836 1.168 L 31.836 0 Z M 15.762 -42.318 L 16.014 -42.318 L 16.014 .459 L 31.379 .459 L 31.379 .709 L .458 .709 L .458 .459 L 15.762 .459 Z M 15.304 -42.777 L 16.472 -42.777 Z M 16.929 -43.236 L 14.847 -43.236 L 14.847 -.459 L -.458 -.459 L -.458 1.627 L 32.295 1.627 L 32.295 -.459 L 16.929 -.459 Z " fill="#1389b9"/>
<path transform="matrix(1,0,0,-1,444.1636,303.0822)" d="M 0 0 L 15.795 0 C 21.326 0 25.875 4.547 25.875 10.078 C 25.875 15.671 21.326 20.219 15.795 20.219 L 0 20.219 Z M 3.011 -1.169 L 27.043 -22.559 L 25.383 -22.559 L 1.351 -1.169 L 0 -1.169 L 0 -22.559 L -1.168 -22.559 L -1.168 21.387 L 15.795 21.387 C 22.002 21.387 27.043 16.348 27.043 10.078 C 27.043 3.87 22.002 -1.169 15.795 -1.169 Z " fill="#1389b9"/>
<path transform="matrix(1,0,0,-1,444.3921,302.8537)" d="M 0 0 L 15.566 0 C 20.998 0 25.417 4.418 25.417 9.85 C 25.417 15.314 20.998 19.761 15.566 19.761 L 0 19.761 Z M 15.566 -.458 L -.458 -.458 L -.458 20.22 L 15.566 20.22 C 21.25 20.22 25.875 15.567 25.875 9.85 C 25.875 4.166 21.25 -.458 15.566 -.458 M 25.242 -22.558 L 26.213 -22.558 L 2.181 -1.168 L 15.566 -1.168 C 21.643 -1.168 26.585 3.774 26.585 9.85 C 26.585 15.958 21.643 20.929 15.566 20.929 L -1.168 20.929 L -1.168 -22.558 L -.458 -22.558 L -.458 -1.168 L 1.21 -1.168 L 1.275 -1.226 Z M 27.416 -23.017 L 25.067 -23.017 L 25.002 -22.959 L 1.036 -1.627 L 0 -1.627 L 0 -23.017 L -1.625 -23.017 L -1.625 21.388 L 15.566 21.388 C 21.895 21.388 27.043 16.211 27.043 9.85 C 27.043 3.521 21.895 -1.627 15.566 -1.627 L 3.384 -1.627 Z " fill="#1389b9"/>
<path transform="matrix(1,0,0,-1,444.3931,302.8537)" d="M 0 0 L 15.565 0 C 20.998 0 25.416 4.418 25.416 9.85 C 25.416 15.314 20.998 19.761 15.565 19.761 L 0 19.761 Z M 15.565 -.458 L -.459 -.458 L -.459 20.22 L 15.565 20.22 C 21.25 20.22 25.875 15.567 25.875 9.85 C 25.875 4.166 21.25 -.458 15.565 -.458 M 25.24 -22.558 L 26.211 -22.558 L 2.18 -1.168 L 15.565 -1.168 C 21.642 -1.168 26.584 3.774 26.584 9.85 C 26.584 15.958 21.642 20.929 15.565 20.929 L -1.168 20.929 L -1.168 -22.558 L -.459 -22.558 L -.459 -1.168 L 1.208 -1.168 L 1.274 -1.226 Z M 27.416 -23.017 L 25.067 -23.017 L 25.001 -22.959 L 1.035 -1.627 L 0 -1.627 L 0 -23.017 L -1.627 -23.017 L -1.627 21.388 L 15.565 21.388 C 21.894 21.388 27.043 16.211 27.043 9.85 C 27.043 3.521 21.894 -1.627 15.565 -1.627 L 3.383 -1.627 Z " fill="#1389b9"/>
<path transform="matrix(1,0,0,-1,444.6216,302.6242)" d="M 0 0 L 15.337 0 C 20.642 0 24.958 4.315 24.958 9.62 C 24.958 14.958 20.642 19.302 15.337 19.302 L 0 19.302 Z M 15.337 -.458 L -.458 -.458 L -.458 19.761 L 15.337 19.761 C 20.895 19.761 25.416 15.212 25.416 9.62 C 25.416 4.063 20.895 -.458 15.337 -.458 M -.459 -.458 L 15.337 -.458 C 20.896 -.458 25.417 4.062 25.417 9.62 C 25.417 15.212 20.896 19.761 15.337 19.761 L -.459 19.761 Z M 15.337 -.917 L -.917 -.917 L -.917 20.22 L 15.337 20.22 C 21.148 20.22 25.875 15.464 25.875 9.62 C 25.875 3.811 21.148 -.917 15.337 -.917 M 25.099 -22.558 L 25.382 -22.558 L 1.35 -1.168 L 15.337 -1.168 C 21.287 -1.168 26.126 3.672 26.126 9.62 C 26.126 15.604 21.287 20.47 15.337 20.47 L -1.168 20.47 L -1.168 -22.558 L -.917 -22.558 L -.917 -1.168 L 1.067 -1.168 L 1.197 -1.284 Z M 24.926 -23.017 L 26.585 -23.017 L 24.924 -23.017 L 24.859 -22.959 L .893 -1.627 L -.459 -1.627 L -.459 -23.017 L -1.625 -23.017 L -1.625 20.929 L 15.337 20.929 C 21.539 20.929 26.584 15.855 26.584 9.62 C 26.584 3.419 21.539 -1.627 15.337 -1.627 L 2.552 -1.627 L 15.337 -1.627 C 21.54 -1.627 26.585 3.419 26.585 9.62 C 26.585 15.855 21.54 20.929 15.337 20.929 L -1.627 20.929 L -1.627 -23.017 L -.458 -23.017 L -.458 -1.627 L .894 -1.627 L .959 -1.685 Z M 27.788 -23.476 L 24.751 -23.476 L 24.621 -23.359 L .72 -2.086 L 0 -2.086 L 0 -23.476 L -2.084 -23.476 L -2.084 21.388 L 15.337 21.388 C 21.792 21.388 27.043 16.108 27.043 9.62 C 27.043 3.165 21.792 -2.086 15.337 -2.086 L 3.756 -2.086 Z " fill="#1389b9"/>
<path transform="matrix(1,0,0,-1,509.0024,309.7219)" d="M 0 0 L -11.678 26.551 L -23.355 0 Z M .492 -1.228 L -23.847 -1.228 L -30.363 -15.919 L -31.653 -15.919 L -12.355 28.026 L -11.063 28.026 L 8.296 -15.919 L 7.005 -15.919 Z " fill="#1389b9"/>
<path transform="matrix(1,0,0,-1,485.998,309.4924)" d="M 0 0 L 22.653 0 L 11.326 25.753 Z M 23.355 -.459 L -.702 -.459 L 11.326 26.891 Z M 30.159 -15.919 L 30.949 -15.919 L 11.792 27.567 L 10.799 27.567 L -8.298 -15.919 L -7.507 -15.919 L -.992 -1.228 L 23.645 -1.228 L 23.706 -1.365 Z M 31.651 -16.378 L 29.861 -16.378 L 29.801 -16.241 L 23.347 -1.687 L -.693 -1.687 L -7.209 -16.378 L -8.999 -16.378 L -8.858 -16.056 L 10.5 28.026 L 12.09 28.026 Z " fill="#1389b9"/>
<path transform="matrix(1,0,0,-1,485.9971,309.4924)" d="M 0 0 L 22.655 0 L 11.327 25.753 Z M 23.355 -.459 L -.7 -.459 L -.56 -.138 L 11.327 26.891 Z M 30.16 -15.919 L 30.95 -15.919 L 11.793 27.567 L 10.8 27.567 L -8.297 -15.919 L -7.506 -15.919 L -.991 -1.228 L 23.646 -1.228 L 23.706 -1.365 Z M 31.653 -16.378 L 29.862 -16.378 L 29.803 -16.241 L 23.348 -1.687 L -.692 -1.687 L -7.208 -16.378 L -8.998 -16.378 L -8.857 -16.056 L 10.501 28.026 L 12.091 28.026 L 12.152 27.889 Z " fill="#1389b9"/>
<path transform="matrix(1,0,0,-1,497.3242,283.1711)" d="M 0 0 L -9.728 -22.118 L 0 -.001 L 3.376 -7.676 Z M -10.976 -26.092 L 10.977 -26.092 L 0 -1.137 Z M -11.678 -26.551 L 11.678 -26.551 Z M 18.982 -42.011 L 19.271 -42.011 L .317 1.017 L .053 1.017 L .209 .662 L 12.379 -27.01 L -12.376 -27.01 L -12.097 -26.368 L -.053 1.017 L -.378 1.017 L -19.274 -42.011 L -18.982 -42.011 L -12.467 -27.319 L 12.469 -27.319 L 12.589 -27.596 Z M -19.976 -42.47 L -18.685 -42.47 L -12.169 -27.778 L 12.169 -27.778 L -12.169 -27.778 L -18.685 -42.47 L -19.975 -42.47 L -15.032 -31.212 Z M 18.686 -42.47 L 19.975 -42.47 L .616 1.476 L -.677 1.476 L .615 1.476 L 19.974 -42.47 Z M 20.677 -42.929 L 18.385 -42.929 L 18.266 -42.653 L 11.872 -28.237 L -11.871 -28.237 L -18.386 -42.929 L -20.674 -42.929 L -20.395 -42.286 L -.975 1.935 L .913 1.935 L 1.035 1.662 Z " fill="#1389b9"/>
<path transform="matrix(1,0,0,-1,532.7852,282.8635)" d="M 0 0 L 0 -41.609 L 8.174 -41.609 L 8.174 -42.777 L -9.342 -42.777 L -9.342 -41.609 L -1.168 -41.609 L -1.168 0 L -9.342 0 L -9.342 1.168 L 8.174 1.168 L 8.174 0 Z " fill="#1389b9"/>
<path transform="matrix(1,0,0,-1,523.6719,325.41133)" d="M 0 0 L 17.059 0 L 17.059 .709 L 8.884 .709 L 8.884 42.777 L 17.059 42.777 L 17.059 43.486 L 0 43.486 L 0 42.777 L 8.175 42.777 L 8.175 .709 L 0 .709 Z M 17.517 -.459 L -.457 -.459 L -.457 1.168 L 7.716 1.168 L 7.716 42.318 L -.457 42.318 L -.457 43.945 L 17.517 43.945 L 17.517 42.318 L 9.343 42.318 L 9.343 1.168 L 17.517 1.168 Z " fill="#1389b9"/>
<path transform="matrix(1,0,0,-1,523.6729,325.41133)" d="M 0 0 L 17.058 0 L 17.058 .709 L 8.883 .709 L 8.883 42.777 L 17.058 42.777 L 17.058 43.486 L 0 43.486 L 0 42.777 L 8.174 42.777 L 8.174 .709 L 0 .709 Z M 17.516 -.459 L -.459 -.459 L -.459 1.168 L 7.715 1.168 L 7.715 42.318 L -.459 42.318 L -.459 43.945 L 17.516 43.945 L 17.516 42.318 L 9.342 42.318 L 9.342 1.168 L 17.516 1.168 Z " fill="#1389b9"/>
<path transform="matrix(1,0,0,-1,523.9023,325.1818)" d="M 0 0 L 16.598 0 L 16.598 .25 L 8.424 .25 L 8.424 42.777 L 16.598 42.777 L 16.598 43.027 L 0 43.027 L 0 42.777 L 8.174 42.777 L 8.174 .25 L 0 .25 Z M 17.057 -.459 L -.458 -.459 L -.458 .709 L 7.715 .709 L 7.715 42.318 L -.458 42.318 L -.458 43.486 L 17.057 43.486 L 17.057 42.318 L 8.883 42.318 L 8.883 .709 L 17.057 .709 Z M -.46 -.459 L 17.057 -.459 L 17.057 .709 L 8.883 .709 L 8.883 42.318 L 17.057 42.318 L 17.057 43.486 L -.46 43.486 L -.46 42.318 L 7.715 42.318 L 7.715 .709 L -.46 .709 Z M 17.516 -.918 L -.917 -.918 L -.917 1.168 L 7.256 1.168 L 7.256 41.859 L -.917 41.859 L -.917 43.945 L 17.516 43.945 L 17.516 41.859 L 9.342 41.859 L 9.342 1.168 L 17.516 1.168 Z " fill="#1389b9"/>
<path transform="matrix(1,0,0,-1,582.2598,281.6955)" d="M 0 0 L 0 -43.945 L -1.229 -43.945 L -33.987 -2.089 L -33.987 -43.945 L -35.155 -43.945 L -35.155 0 L -33.987 0 L -1.229 -41.916 L -1.229 0 Z " fill="#1389b9"/>
<path transform="matrix(1,0,0,-1,581.1426,325.41133)" d="M 0 0 L .888 0 L .888 43.486 L .117 43.486 L .117 1.136 L -.292 1.658 L -32.982 43.486 L -33.809 43.486 L -33.809 0 L -33.1 0 L -33.1 42.29 L -32.69 41.769 Z M 1.347 -.459 L -.224 -.459 L -.292 -.371 L -32.641 40.964 L -32.641 -.459 L -34.268 -.459 L -34.268 43.945 L -32.759 43.945 L -32.69 43.857 L -.342 2.464 L -.342 43.945 L 1.347 43.945 Z " fill="#1389b9"/>
<path transform="matrix(1,0,0,-1,581.1426,325.41133)" d="M 0 0 L .888 0 L .888 43.486 L .117 43.486 L .117 1.136 L -.292 1.658 L -32.982 43.486 L -33.809 43.486 L -33.809 0 L -33.1 0 L -33.1 42.29 L -32.69 41.769 Z M 1.347 -.459 L -.224 -.459 L -.292 -.371 L -32.641 40.964 L -32.641 -.459 L -34.268 -.459 L -34.268 43.945 L -32.759 43.945 L -32.69 43.857 L -.342 2.464 L -.342 43.945 L 1.347 43.945 Z " fill="#1389b9"/>
<path transform="matrix(1,0,0,-1,581.2539,325.1818)" d="M 0 0 L .547 0 L .547 43.027 L .235 43.027 L .235 .243 L -.584 1.287 L -33.205 43.027 L -33.691 43.027 L -33.691 0 L -33.44 0 L -33.44 42.722 L -32.621 41.681 Z M -34.149 -.459 L -32.981 -.459 L -32.981 41.398 L -32.981 -.459 L -34.149 -.459 L -34.149 43.486 L -32.981 43.486 L -32.913 43.398 L -4.45 6.979 L -32.981 43.486 L -34.149 43.486 Z M -.224 -.459 L 1.006 -.459 L 1.006 43.486 L -.224 43.486 L -.224 1.568 L -.224 43.486 L 1.006 43.486 L 1.006 -.459 L -.224 -.459 L -.292 -.371 L -20.188 25.053 Z M 1.465 -.918 L -.446 -.918 L -.584 -.74 L -32.522 40.069 L -32.522 -.918 L -34.608 -.918 L -34.608 43.945 L -32.758 43.945 L -32.621 43.768 L -.682 2.899 L -.682 43.945 L 1.465 43.945 Z " fill="#1389b9"/>
<path transform="matrix(1,0,0,-1,589.5713,282.8635)" d="M 0 0 L 0 -20.219 L 19.36 -20.219 L 19.36 -21.388 L 0 -21.388 L 0 -41.609 L 26.488 -41.609 L 26.488 -42.777 L -1.168 -42.777 L -1.168 1.168 L 26.488 1.168 L 26.488 0 Z " fill="#1389b9"/>
<path transform="matrix(1,0,0,-1,588.6328,325.41133)" d="M 0 0 L 27.197 0 L 27.197 .709 L .709 .709 L .709 21.39 L 20.069 21.39 L 20.069 22.1 L .709 22.1 L .709 42.777 L 27.197 42.777 L 27.197 43.486 L 0 43.486 Z M 27.656 -.459 L -.459 -.459 L -.459 43.945 L 27.656 43.945 L 27.656 42.318 L 1.168 42.318 L 1.168 22.558 L 20.528 22.558 L 20.528 20.931 L 1.168 20.931 L 1.168 1.168 L 27.656 1.168 Z " fill="#1389b9"/>
<path transform="matrix(1,0,0,-1,588.6328,325.41133)" d="M 0 0 L 27.197 0 L 27.197 .709 L .709 .709 L .709 21.39 L 20.069 21.39 L 20.069 22.1 L .709 22.1 L .709 42.777 L 27.197 42.777 L 27.197 43.486 L 0 43.486 Z M 27.656 -.459 L -.459 -.459 L -.459 43.945 L 27.656 43.945 L 27.656 42.318 L 1.168 42.318 L 1.168 22.558 L 20.528 22.558 L 20.528 20.931 L 1.168 20.931 L 1.168 1.168 L 27.656 1.168 Z " fill="#1389b9"/>
<path transform="matrix(1,0,0,-1,588.8623,325.1818)" d="M 0 0 L 26.738 0 L 26.738 .25 L .25 .25 L .25 21.39 L 19.61 21.39 L 19.61 21.641 L .25 21.641 L .25 42.777 L 26.738 42.777 L 26.738 43.027 L 0 43.027 Z M 27.197 -.459 L -.459 -.459 L -.459 43.486 L 27.197 43.486 L 27.197 42.318 L .709 42.318 L .709 22.1 L 20.069 22.1 L 20.069 20.931 L .709 20.931 L .709 .709 L 27.197 .709 Z M -.459 -.459 L 27.197 -.459 L 27.197 .709 L .709 .709 L .709 20.931 L 20.069 20.931 L 20.069 22.1 L .709 22.1 L .709 42.318 L 27.197 42.318 L 27.197 43.486 L -.459 43.486 Z M 27.656 -.918 L -.918 -.918 L -.918 43.945 L 27.656 43.945 L 27.656 41.859 L 1.168 41.859 L 1.168 22.558 L 20.528 22.558 L 20.528 20.472 L 1.168 20.472 L 1.168 1.168 L 27.656 1.168 Z " fill="#1389b9"/>
<path transform="matrix(1,0,0,-1,623.373,303.0822)" d="M 0 0 L 15.795 0 C 21.327 0 25.875 4.547 25.875 10.078 C 25.875 15.671 21.327 20.219 15.795 20.219 L 0 20.219 Z M 3.011 -1.169 L 27.043 -22.559 L 25.383 -22.559 L 1.352 -1.169 L 0 -1.169 L 0 -22.559 L -1.168 -22.559 L -1.168 21.387 L 15.795 21.387 C 22.002 21.387 27.043 16.348 27.043 10.078 C 27.043 3.87 22.002 -1.169 15.795 -1.169 Z " fill="#1389b9"/>
<path transform="matrix(1,0,0,-1,623.6025,302.8537)" d="M 0 0 L 15.565 0 C 20.998 0 25.416 4.418 25.416 9.85 C 25.416 15.314 20.998 19.761 15.565 19.761 L 0 19.761 Z M 15.565 -.458 L -.459 -.458 L -.459 20.22 L 15.565 20.22 C 21.25 20.22 25.874 15.567 25.874 9.85 C 25.874 4.166 21.25 -.458 15.565 -.458 M 25.239 -22.558 L 26.211 -22.558 L 2.18 -1.168 L 15.565 -1.168 C 21.642 -1.168 26.584 3.774 26.584 9.85 C 26.584 15.958 21.642 20.929 15.565 20.929 L -1.169 20.929 L -1.169 -22.558 L -.459 -22.558 L -.459 -1.168 L 1.208 -1.168 L 1.273 -1.226 Z M 27.415 -23.017 L 25.067 -23.017 L 25.001 -22.959 L 1.035 -1.627 L 0 -1.627 L 0 -23.017 L -1.628 -23.017 L -1.628 21.388 L 15.565 21.388 C 21.894 21.388 27.043 16.211 27.043 9.85 C 27.043 3.521 21.894 -1.627 15.565 -1.627 L 3.384 -1.627 Z " fill="#1389b9"/>
<path transform="matrix(1,0,0,-1,623.6025,302.8537)" d="M 0 0 L 15.565 0 C 20.998 0 25.416 4.418 25.416 9.85 C 25.416 15.314 20.998 19.761 15.565 19.761 L 0 19.761 Z M 15.565 -.458 L -.459 -.458 L -.459 20.22 L 15.565 20.22 C 21.25 20.22 25.874 15.567 25.874 9.85 C 25.874 4.166 21.25 -.458 15.565 -.458 M 25.239 -22.558 L 26.211 -22.558 L 2.18 -1.168 L 15.565 -1.168 C 21.642 -1.168 26.584 3.774 26.584 9.85 C 26.584 15.958 21.642 20.929 15.565 20.929 L -1.169 20.929 L -1.169 -22.558 L -.459 -22.558 L -.459 -1.168 L 1.208 -1.168 L 1.273 -1.226 Z M 27.415 -23.017 L 25.067 -23.017 L 25.001 -22.959 L 1.035 -1.627 L 0 -1.627 L 0 -23.017 L -1.628 -23.017 L -1.628 21.388 L 15.565 21.388 C 21.894 21.388 27.043 16.211 27.043 9.85 C 27.043 3.521 21.894 -1.627 15.565 -1.627 L 3.384 -1.627 Z " fill="#1389b9"/>
<path transform="matrix(1,0,0,-1,623.832,302.6242)" d="M 0 0 L 15.336 0 C 20.642 0 24.957 4.315 24.957 9.62 C 24.957 14.958 20.642 19.302 15.336 19.302 L 0 19.302 Z M 15.336 -.458 L -.459 -.458 L -.459 19.761 L 15.336 19.761 C 20.894 19.761 25.416 15.212 25.416 9.62 C 25.416 4.063 20.894 -.458 15.336 -.458 M -.459 -.458 L 15.336 -.458 C 20.894 -.458 25.416 4.062 25.416 9.62 C 25.416 15.212 20.894 19.761 15.336 19.761 L -.459 19.761 Z M 15.336 -.917 L -.918 -.917 L -.918 20.22 L 15.336 20.22 C 21.146 20.22 25.874 15.464 25.874 9.62 C 25.874 3.811 21.146 -.917 15.336 -.917 M 25.097 -22.558 L 25.38 -22.558 L 1.348 -1.168 L 15.336 -1.168 C 21.285 -1.168 26.125 3.672 26.125 9.62 C 26.125 15.604 21.285 20.47 15.336 20.47 L -1.169 20.47 L -1.169 -22.558 L -.918 -22.558 L -.918 -1.168 L 1.064 -1.168 L 1.196 -1.284 Z M 24.924 -23.017 L 26.584 -23.017 L 24.924 -23.017 L 24.858 -22.959 L .893 -1.627 L -.459 -1.627 L -.459 -23.017 L -1.627 -23.017 L -1.627 20.929 L 15.336 20.929 C 21.537 20.929 26.584 15.855 26.584 9.62 C 26.584 3.419 21.537 -1.627 15.336 -1.627 L 2.552 -1.627 L 15.336 -1.627 C 21.539 -1.627 26.584 3.419 26.584 9.62 C 26.584 15.855 21.539 20.929 15.336 20.929 L -1.627 20.929 L -1.627 -23.017 L -.459 -23.017 L -.459 -1.627 L .893 -1.627 L .958 -1.685 Z M 27.787 -23.476 L 24.751 -23.476 L 24.62 -23.359 L .719 -2.086 L 0 -2.086 L 0 -23.476 L -2.086 -23.476 L -2.086 21.388 L 15.336 21.388 C 21.79 21.388 27.043 16.108 27.043 9.62 C 27.043 3.165 21.79 -2.086 15.336 -2.086 L 3.756 -2.086 Z " fill="#1389b9"/>
<path transform="matrix(1,0,0,-1,360.7437,482.4084)" d="M 0 0 C 2.92 -.014 5.292 -2.412 5.295 -5.355 C 5.299 -8.255 2.92 -10.623 -.001 -10.636 C -2.935 -10.647 -5.312 -8.272 -5.32 -5.324 C -5.33 -2.405 -2.913 .014 0 0 M -8.86 -3.102 C -8.658 -4.637 -8 -5.801 -6.85 -6.796 C -6.371 -7.209 -6.011 -7.795 -5.687 -8.354 C -4.455 -10.497 -2.612 -11.681 -.157 -11.737 C 2.351 -11.795 4.304 -10.677 5.545 -8.497 C 5.984 -7.729 6.511 -7.077 7.121 -6.465 C 7.461 -6.122 7.814 -5.785 8.133 -5.419 C 8.271 -5.262 8.387 -5.052 8.432 -4.847 C 8.679 -3.731 8.903 -2.612 9.128 -1.493 C 9.385 -.227 9.633 1.042 9.892 2.348 L -9.92 2.348 C -9.551 .492 -9.099 -1.289 -8.86 -3.102 " fill="#1389b9" fill-rule="evenodd"/>
<path transform="matrix(1,0,0,-1,384.8838,484.0783)" d="M 0 0 C -.001 -.646 -.299 -.94 -.965 -.946 C -2.094 -.957 -3.221 -.952 -4.348 -.948 C -5.158 -.943 -5.43 -.677 -5.437 .152 C -5.446 1.229 -5.438 2.306 -5.438 3.38 L -5.438 4.015 C -5.649 4.026 -5.832 4.047 -6.014 4.047 C -7.297 4.05 -8.583 4.026 -9.865 4.059 C -10.352 4.071 -10.501 3.94 -10.536 3.434 C -10.723 .703 -10.93 -2.027 -11.196 -4.752 C -11.248 -5.27 -11.483 -5.838 -11.807 -6.25 C -13.711 -8.679 -15.672 -11.064 -17.594 -13.479 C -17.77 -13.699 -17.899 -14.028 -17.902 -14.309 C -17.927 -16.615 -17.923 -18.923 -17.904 -21.232 C -17.902 -21.485 -17.809 -21.777 -17.662 -21.988 C -16.118 -24.229 -14.563 -26.461 -12.989 -28.683 C -12.412 -29.499 -12.277 -30.338 -12.603 -31.284 C -13.632 -34.257 -14.641 -37.239 -15.668 -40.216 C -16.042 -41.298 -17.024 -41.944 -18.01 -41.798 C -19.114 -41.632 -19.947 -40.805 -19.922 -39.682 C -19.903 -38.844 -19.666 -38.01 -19.507 -37.178 C -19.152 -35.31 -18.779 -33.443 -18.442 -31.569 C -18.403 -31.354 -18.496 -31.047 -18.639 -30.88 C -19.973 -29.305 -21.331 -27.75 -22.684 -26.193 C -23.227 -25.567 -23.563 -25.616 -23.926 -26.357 C -26.199 -30.984 -28.485 -35.609 -30.74 -40.248 C -31.11 -41.015 -31.604 -41.6 -32.377 -41.944 L -33.523 -41.944 C -33.556 -41.912 -33.582 -41.863 -33.623 -41.844 C -34.934 -41.255 -35.389 -40.244 -34.938 -38.885 C -33.657 -35.027 -32.399 -31.163 -31.067 -27.32 C -30.59 -25.943 -30.344 -24.576 -30.372 -23.112 C -30.433 -20.182 -30.382 -17.248 -30.403 -14.318 C -30.406 -14.037 -30.529 -13.707 -30.706 -13.486 C -32.617 -11.085 -34.542 -8.694 -36.481 -6.315 C -36.884 -5.821 -37.093 -5.283 -37.142 -4.66 C -37.354 -1.912 -37.58 .833 -37.783 3.58 C -37.81 3.929 -37.911 4.062 -38.275 4.056 C -39.647 4.037 -41.019 4.034 -42.388 4.058 C -42.796 4.064 -42.882 3.917 -42.876 3.543 C -42.855 2.417 -42.861 1.289 -42.868 .16 C -42.876 -.689 -43.143 -.946 -44 -.949 C -45.095 -.951 -46.186 -.954 -47.279 -.948 C -48.036 -.942 -48.307 -.662 -48.307 .097 C -48.307 3.514 -48.309 6.932 -48.307 10.351 C -48.307 11.071 -48.022 11.36 -47.306 11.361 C -46.179 11.364 -45.05 11.364 -43.921 11.361 C -43.165 11.36 -42.882 11.095 -42.871 10.336 C -42.858 9.227 -42.867 8.117 -42.867 7.005 L -42.867 6.365 L -42.278 6.365 C -40.924 6.365 -39.571 6.343 -38.219 6.377 C -37.681 6.391 -37.145 6.558 -36.607 6.608 C -36.236 6.641 -35.855 6.617 -35.484 6.577 C -35.079 6.533 -34.683 6.376 -34.281 6.373 C -27.532 6.36 -20.781 6.365 -14.033 6.365 C -11.663 6.88 -9.293 6.104 -6.921 6.357 C -6.458 6.406 -5.985 6.365 -5.438 6.365 L -5.438 6.942 C -5.438 8.072 -5.447 9.199 -5.436 10.326 C -5.426 11.092 -5.142 11.36 -4.394 11.361 C -3.248 11.364 -2.102 11.367 -.958 11.361 C -.304 11.358 -.001 11.058 0 10.411 C .003 6.94 .003 3.471 0 0 M -24.152 25.828 C -45.09 25.828 -62.063 8.856 -62.063 -12.081 C -62.063 -33.02 -45.09 -49.992 -24.152 -49.992 C -3.215 -49.992 13.757 -33.02 13.757 -12.081 C 13.757 8.856 -3.215 25.828 -24.152 25.828 " fill="#1389b9" fill-rule="evenodd"/>
<path transform="matrix(1,0,0,-1,562.4814,495.9269)" d="M 0 0 C 1.627 .304 3.247 .611 5.063 .951 C 4.295 1.993 3.598 2.938 2.812 3.998 C 1.772 2.615 .831 1.363 -.112 .108 C -.074 .073 -.035 .037 0 0 " fill="#1389b9" fill-rule="evenodd"/>
<path transform="matrix(1,0,0,-1,581.2012,473.1896)" d="M 0 0 C -.257 -.898 -.935 -1.406 -2.01 -1.516 C -3.892 -1.706 -5.744 -2.041 -7.542 -2.646 C -11.332 -3.92 -14.385 -6.162 -16.587 -9.524 C -16.662 -9.637 -16.724 -9.759 -16.776 -9.85 C -16.021 -10.58 -15.252 -11.26 -14.568 -12.013 C -14.173 -12.455 -13.916 -13.026 -13.588 -13.53 C -13.449 -13.744 -13.311 -13.966 -13.127 -14.14 C -11.077 -16.098 -9.264 -18.222 -8.3 -20.944 C -7.921 -22.018 -7.536 -23.101 -7.705 -24.279 C -7.868 -25.426 -8.526 -26.189 -9.662 -26.411 C -12.94 -27.047 -16.224 -27.661 -19.507 -28.267 C -20.126 -28.379 -20.762 -28.402 -21.485 -28.479 C -21.43 -28.664 -21.386 -28.907 -21.287 -29.123 C -18.995 -34.05 -16.746 -38.996 -14.388 -43.891 C -13.141 -46.474 -15.077 -48.927 -17.413 -49.055 C -18.665 -49.121 -19.547 -48.452 -20.087 -47.34 C -21.127 -45.191 -22.182 -43.047 -23.191 -40.884 C -24.427 -38.232 -25.625 -35.564 -26.838 -32.903 C -26.895 -32.782 -26.951 -32.662 -27.049 -32.457 C -27.32 -33.055 -27.587 -33.575 -27.796 -34.118 C -29.454 -38.409 -31.13 -42.69 -32.731 -47.002 C -33.175 -48.196 -33.718 -49.191 -34.983 -49.623 L -36.233 -49.623 C -36.892 -49.259 -37.634 -48.995 -38.187 -48.514 C -39.236 -47.602 -39.511 -46.379 -39.07 -45.055 C -37.178 -39.355 -35.01 -33.761 -32.459 -28.319 C -31.019 -25.25 -29.666 -22.14 -28.202 -19.083 C -26.424 -15.363 -24.527 -11.7 -22.171 -8.306 C -21.105 -6.771 -20.049 -5.213 -18.816 -3.814 C -15.646 -.218 -11.609 1.971 -6.963 3.045 C -5.768 3.319 -4.547 3.498 -3.331 3.654 C -1.152 3.935 .578 2.016 0 0 M -8.648 -14.33 C -11.154 -14.317 -13.164 -12.296 -13.161 -9.788 C -13.161 -7.257 -11.126 -5.233 -8.595 -5.243 C -6.06 -5.249 -4.058 -7.269 -4.062 -9.813 C -4.068 -12.336 -6.102 -14.342 -8.648 -14.33 M -19.58 14.939 C -40.515 14.939 -57.489 -2.032 -57.489 -22.97 C -57.489 -43.908 -40.515 -60.881 -19.58 -60.881 C 1.356 -60.881 18.331 -43.908 18.331 -22.97 C 18.331 -2.032 1.356 14.939 -19.58 14.939 " fill="#1389b9" fill-rule="evenodd"/>
<path transform="matrix(1,0,0,-1,487.9072,492.65553)" d="M 0 0 C -.353 -2.577 -1.083 -5.035 -2.403 -7.295 C -4.465 -10.82 -7.203 -13.779 -10.144 -16.565 C -15.072 -21.229 -20.477 -25.279 -26.13 -29.009 C -26.461 -29.229 -26.673 -29.208 -26.993 -28.997 C -30.911 -26.427 -34.692 -23.668 -38.305 -20.683 C -41.757 -17.828 -45.044 -14.795 -47.892 -11.318 C -48.259 -10.871 -48.603 -10.406 -49.044 -9.843 L -48.35 -9.843 C -45.871 -9.843 -43.389 -9.813 -40.907 -9.857 C -39.862 -9.873 -39.155 -9.471 -38.667 -8.573 C -38.312 -7.927 -37.911 -7.303 -37.498 -6.611 C -37.358 -6.809 -37.259 -6.943 -37.169 -7.083 C -35.988 -8.899 -34.808 -10.717 -33.632 -12.535 C -33.147 -13.284 -32.485 -13.68 -31.575 -13.567 C -30.707 -13.462 -30.192 -12.922 -29.899 -12.131 C -29.062 -9.86 -28.224 -7.589 -27.385 -5.318 C -26.978 -4.219 -26.569 -3.122 -26.124 -1.926 C -26.001 -2.231 -25.915 -2.431 -25.839 -2.632 C -25.118 -4.561 -24.408 -6.491 -23.68 -8.416 C -23.313 -9.385 -22.692 -9.836 -21.728 -9.84 C -19.041 -9.846 -16.349 -9.849 -13.661 -9.833 C -13.359 -9.831 -13.036 -9.757 -12.765 -9.626 C -11.946 -9.235 -11.516 -8.313 -11.704 -7.46 C -11.915 -6.509 -12.692 -5.856 -13.672 -5.849 C -15.633 -5.839 -17.595 -5.817 -19.556 -5.862 C -20.171 -5.876 -20.438 -5.697 -20.651 -5.102 C -21.789 -1.928 -22.99 1.226 -24.161 4.388 C -24.417 5.08 -24.835 5.598 -25.561 5.807 C -26.63 6.116 -27.619 5.598 -28.036 4.482 C -29.11 1.615 -30.17 -1.256 -31.235 -4.127 C -31.597 -5.099 -31.958 -6.071 -32.349 -7.127 C -33.521 -5.322 -34.625 -3.605 -35.746 -1.898 C -36.767 -.346 -38.465 -.386 -39.423 -1.979 C -40.126 -3.149 -40.815 -4.333 -41.538 -5.496 C -41.644 -5.662 -41.901 -5.83 -42.091 -5.833 C -45.091 -5.852 -48.093 -5.852 -51.095 -5.833 C -51.264 -5.833 -51.524 -5.676 -51.587 -5.525 C -51.881 -4.825 -52.171 -4.117 -52.366 -3.384 C -52.688 -2.171 -52.937 -.938 -53.216 .288 L -53.216 2.995 C -53.03 3.922 -52.903 4.865 -52.65 5.774 C -49.874 15.752 -37.804 19.98 -29.417 13.905 C -28.388 13.161 -27.479 12.248 -26.483 11.388 C -26.53 11.366 -26.491 11.373 -26.472 11.394 C -26.398 11.468 -26.33 11.548 -26.259 11.623 C -22.575 15.588 -18.043 17.388 -12.688 16.504 C -6.321 15.451 -2.253 11.643 -.407 5.47 C -.169 4.668 -.069 3.822 .094 2.995 L .094 .288 C .062 .191 .014 .099 0 0 M -27.358 34.405 C -48.296 34.405 -65.271 17.434 -65.271 -3.504 C -65.271 -24.442 -48.296 -41.415 -27.358 -41.415 C -6.423 -41.415 10.55 -24.442 10.55 -3.504 C 10.55 17.434 -6.423 34.405 -27.358 34.405 " fill="#1389b9" fill-rule="evenodd"/>
<path transform="matrix(1,0,0,-1,663.7988,504.9572)" d="M 0 0 L -1.159 0 L -1.159 -.631 C -1.159 -2.627 -1.153 -4.621 -1.161 -6.616 C -1.168 -7.988 -1.937 -9.079 -3.151 -9.489 C -5.21 -10.179 -7.177 -8.799 -7.184 -6.634 C -7.194 -1.186 -7.186 4.264 -7.187 9.714 L -7.187 10.131 C -8.175 9.447 -9.155 8.749 -10.16 8.087 C -10.952 7.56 -11.767 7.061 -12.59 6.585 C -12.916 6.397 -13.042 6.196 -13.039 5.812 C -13.017 4.061 -13.048 2.308 -13.02 .555 C -13.008 -.221 -12.951 -1.006 -12.819 -1.77 C -11.805 -7.715 -6.57 -12.105 -.563 -12.095 C -.124 -12.093 .039 -12.006 .037 -11.526 C .018 -7.847 .027 -4.169 .025 -.489 C .025 -.325 .009 -.162 0 0 " fill="#1389b9" fill-rule="evenodd"/>
<path transform="matrix(1,0,0,-1,675.6826,498.9758)" d="M 0 0 C .002 .135 -.124 .32 -.246 .401 C -2.086 1.668 -4.206 2.53 -5.794 4.283 L -5.794 -16.075 C -2.963 -14.377 -.529 -11.129 -.155 -7.379 C .091 -4.94 -.026 -2.462 0 0 " fill="#1389b9" fill-rule="evenodd"/>
<path transform="matrix(1,0,0,-1,679.3672,497.3791)" d="M 0 0 C -.119 -.848 -.705 -1.388 -1.461 -1.683 C -1.838 -1.83 -1.949 -1.987 -1.944 -2.376 C -1.919 -4.024 -1.901 -5.674 -1.941 -7.32 C -2.066 -12.633 -4.469 -16.645 -8.949 -19.438 C -9.344 -19.684 -9.545 -19.913 -9.518 -20.404 C -9.476 -21.197 -9.495 -22 -9.535 -22.793 C -9.602 -24.125 -10.345 -25.071 -11.601 -25.485 C -11.678 -25.512 -11.751 -25.558 -11.823 -25.597 L -13.279 -25.597 C -13.382 -25.543 -13.479 -25.48 -13.584 -25.437 C -14.88 -24.926 -15.486 -23.942 -15.54 -22.586 C -15.554 -22.224 -15.541 -21.86 -15.541 -21.469 C -16.224 -21.42 -16.879 -21.408 -17.524 -21.326 C -23.372 -20.588 -27.354 -17.434 -29.514 -11.978 C -30.135 -10.399 -30.365 -8.735 -30.352 -7.037 C -30.335 -5.27 -30.347 -3.501 -30.347 -1.871 C -30.858 -1.487 -31.32 -1.214 -31.687 -.85 C -32.461 -.083 -32.373 .926 -31.49 1.565 C -30.146 2.545 -28.781 3.5 -27.421 4.457 C -26.738 4.935 -26.218 5.543 -25.843 6.285 C -24.805 8.343 -23.75 10.39 -22.731 12.451 C -22.305 13.311 -21.677 13.702 -20.709 13.693 C -17.658 13.668 -14.602 13.665 -11.549 13.695 C -10.571 13.704 -9.948 13.281 -9.526 12.441 C -8.494 10.385 -7.439 8.338 -6.413 6.279 C -5.999 5.45 -5.418 4.785 -4.664 4.257 C -3.447 3.399 -2.238 2.524 -1.013 1.679 C -.412 1.264 .109 .794 0 0 M -16.138 27.712 C -12.652 27.712 -9.848 24.916 -9.848 21.441 C -9.848 17.973 -12.67 15.138 -16.127 15.135 C -19.572 15.134 -22.425 17.981 -22.429 21.43 C -22.432 24.888 -19.605 27.71 -16.138 27.712 M -16.101 38.564 C -37.036 38.564 -54.008 21.59 -54.008 .654 C -54.008 -20.284 -37.036 -37.255 -16.101 -37.255 C 4.838 -37.255 21.812 -20.284 21.812 .654 C 21.812 21.59 4.838 38.564 -16.101 38.564 " fill="#1389b9" fill-rule="evenodd"/>
</g>
</g>
</g>
</svg>
